<?xml version="1.0" encoding="UTF-8"?><svg id="Layer_1" xmlns="http://www.w3.org/2000/svg" viewBox="0 0 50 50"><defs><style>.cls-1{fill:#7bbee4;}.cls-2{fill:#2d3c49;}</style></defs><polyline class="cls-1" points="7.87 21.02 19.19 20.62 19.19 33.12 8.14 32.75"/><g><path class="cls-2" d="M35.55,22.28v-7.99c0-.55-.3-1.04-.78-1.28-.44-.22-.97-.17-1.36,.13l-1.07,.77c-3.99,2.87-8.45,4.86-13.25,5.91-2.52,.55-5.1,.83-7.68,.83H6.24c-1.67,0-3.24,.65-4.42,1.83C.65,23.65,0,25.22,0,26.89,0,30.33,2.8,33.14,6.24,33.14h1.3c3.3,3.07,4.34,9.91,4.9,13.61,.03,.2,.06,.4,.09,.58,.24,1.55,1.55,2.67,3.11,2.67,.91,0,1.78-.39,2.38-1.08s.87-1.6,.74-2.5c-.2-1.44-.46-3.48-.71-5.54,1.31-.17,2.38-1.28,2.59-2.76,.04-.29,.03-.6-.02-.9l-.43-2.99c4.38,1.1,8.46,2.99,12.14,5.63l1.08,.77c.23,.17,.51,.26,.79,.26,.2,0,.39-.04,.58-.14,.48-.24,.78-.73,.78-1.28v-7.98c2.01-.6,3.42-2.46,3.42-4.61s-1.41-4-3.42-4.61ZM7.58,32.07h-1.33c-1.5,0-3.1-.93-4.07-2.06-.04-.04-.07-.09-.11-.14-.1-.13-.21-.27-.29-.4h.03c-.04-.07-.06-.16-.09-.23-.24-.37-.39-.79-.44-1.23-.04-.19-.08-.39-.1-.59-.09-.48-.08-.99,.05-1.46,.03-.16,.07-.32,.11-.48,.09-.58,.34-1.13,.75-1.55,.12-.15,.22-.32,.36-.46,.91-.92,2.5-1.84,3.79-1.84h1.33v10.45Zm1.01-10.36h2.82c2.37,0,5.17-.23,7.5-.68v11.73c-2.32-.45-5.12-.68-7.49-.68h-2.84v-10.37Zm8.5,26.64c-.33,.38-.81,.6-1.32,.6-.87,0-2.01-.87-2.14-1.73-.03-.18-.06-.38-.09-.58-.53-3.52-1.58-9.84-4.5-13.51h2.38c1.45,0,3.24,.09,4.68,.27,.25,2.17,1.11,9.58,1.61,13.21,.07,.5-.29,1.35-.63,1.74Zm2.46-10.18c-.12,.83-.97,1.61-1.65,1.7-.29-2.39-.55-5.03-.69-6.26,.51,.08,1.31,.31,1.82,.42l.51,3.55v.04c.04,.15,.03,.42,0,.56Zm14.96,1.29l-1.35-.27c-4.01-2.87-8.47-4.89-13.27-6.01v-12.46c4.8-1.12,9.26-3.14,13.27-6.02l1.34-.72v25.48Zm1.05-9.12v-6.94c1.04,0,2.61,1.51,2.61,3.5s-1.51,3.44-2.61,3.44Z"/><path class="cls-2" d="M49.4,26.28h-7.42c-.39,0-.8,.22-.8,.6s.31,.52,.7,.52h7.42c.39,0,.7-.14,.7-.52s-.22-.6-.6-.6Z"/><path class="cls-2" d="M41.51,23.07c.12,0,.24-.03,.35-.09l6.43-3.71c.33-.19,.61-.53,.42-.87-.19-.33-.54-.24-.87-.05l-6.43,3.71c-.33,.19-.53,.41-.34,.74,.13,.22,.2,.26,.44,.26Z"/><path class="cls-2" d="M48.41,34.53l-6.43-3.71c-.33-.19-.71-.19-.9,.15-.19,.33,.09,.59,.42,.78l6.43,3.71c.11,.06,.23,.09,.35,.09,.24,0,.31,.05,.44-.18,.19-.33,.03-.65-.31-.84Z"/></g><path class="cls-2" d="M34.88,22.94v7.75s3.26-.01,3.7-3.98c0,0-.85-3.61-3.7-3.77Z"/></svg>