<?xml version="1.0" encoding="UTF-8"?><svg id="Layer_1" xmlns="http://www.w3.org/2000/svg" viewBox="0 0 50 50"><defs><style>.cls-1{fill:none;stroke:#313131;stroke-linecap:round;stroke-linejoin:round;}.cls-2{fill:#7bbee4;}.cls-3{fill:#313131;}</style></defs><polygon class="cls-3" points="15.43 41.62 15.43 48.91 18.2 46.28 20.86 49.05 20.86 41.62 15.43 41.62"/><polygon class="cls-2" points="8.28 39.02 10.38 38.5 10.18 1.47 7.76 3.57 8.28 39.02"/><polyline class="cls-2" points="16.51 15.23 23.78 18.41 30.95 15.23 23.8 11.61"/><path class="cls-2" d="M26.24,16.98c-.37,.32-.58,.75-.8,1.17-1.25-.22-2.5-.43-3.75-.64-.23-.04-.46-.01-.66,.06-.11-.14-.19-.31-.33-.43-.43-.36-1.06-.42-1.48,0-.37,.37-.43,1.11,0,1.48,.21,.17,.24,.2,.35,.41,0,.02,.06,.17,.06,.19,0,.04,.01,.05,.01,.07,0,.06,0,.12,0,.19,0,.27-.03,.51,.05,.77,.11,.38,.4,.66,.73,.86,1.02,.61,2.2,1.09,3.38,1.2,.62,.06,1.26-.04,1.86-.22,.54-.16,1.16-.36,1.64-.65,.69-.42,.7-1.14,.7-1.86,0-.62,0-1.24,0-1.86,0-.96-1.12-1.31-1.78-.74Z"/><g><path class="cls-1" d="M10.38,38.5l25.29-.05c1.36,0,2.47-1.22,2.46-2.71l-.05-19.51"/><path class="cls-1" d="M38.09,17.81V4.16c0-1.49-1.1-2.7-2.47-2.7H10.47c-1.52,0-2.64,1.49-2.64,3.26V40.65"/><line class="cls-1" x1="15.82" y1="30.54" x2="31.64" y2="30.54"/><path class="cls-1" d="M7.75,41.24V4.72c0-1.77,1.12-3.26,2.64-3.26l-.03,12.34v2.91s-.07,21.59-.07,21.59"/><path class="cls-1" d="M13.57,44.78h-3.17c-1.47,0-2.67-1.4-2.67-3.12v-.06c0-1.73,1.2-3.12,2.67-3.12h25.83v4.65c0,.92-.68,1.66-1.52,1.66h-11.58"/><line class="cls-1" x1="12.79" y1="41.6" x2="36.06" y2="41.6"/><polygon class="cls-1" points="21.05 49.26 18.24 46.28 15.43 49.26 15.43 41.61 21.05 41.61 21.05 49.26"/><polygon class="cls-1" points="21.05 49.26 18.24 46.28 15.43 49.26 15.43 41.61 21.05 41.61 21.05 49.26"/><g><path class="cls-1" d="M19.4,16.93v3.82s1.91,1.79,4.38,1.79,4.38-1.79,4.38-1.79v-3.82"/><line class="cls-1" x1="30.56" y1="15.61" x2="30.5" y2="20.64"/><polygon class="cls-1" points="23.73 18.43 16.18 15.23 23.73 11.57 31.28 15.23 23.73 18.43"/><polygon class="cls-1" points="23.73 18.43 16.18 15.23 23.73 11.57 31.28 15.23 23.73 18.43"/></g></g><line class="cls-1" x1="15.82" y1="27.05" x2="31.64" y2="27.05"/></svg>