<?xml version="1.0" encoding="UTF-8"?><svg id="Layer_1" xmlns="http://www.w3.org/2000/svg" viewBox="0 0 50 50"><defs><style>.cls-1{fill:#020202;}.cls-2{fill:#7bbee4;}</style></defs><path class="cls-2" d="M25.61,11.73c-.04-.15-.12-.28-.23-.39,.04,.05,.08,.11,.13,.16-.08-.1-.13-.21-.19-.32-.03-.1-.06-.19-.08-.29,0-.11-.02-.23,0-.34,0-.12-.02-.24-.08-.34-.04-.11-.1-.21-.19-.29-.16-.16-.41-.27-.63-.26-.23,.01-.47,.09-.63,.26,0,0-.01,.01-.02,.02-.14-.25-.26-.5-.38-.76,0-.02-.02-.04-.03-.06,0-.01,0,0-.01-.03-.02-.06-.05-.12-.07-.18-.06-.15-.11-.31-.16-.46-.1-.29-.18-.59-.25-.88-.03-.15-.06-.3-.09-.45-.01-.08-.03-.15-.04-.23,0-.05-.05-.35-.01-.09-.03-.25-.08-.45-.26-.63,0,0,0,0,0,0-.16-.19-.38-.31-.65-.3-1,.06-1.99,.2-2.97,.4-.42-.03-.84,.2-.95,.63-.31,1.18-.46,2.41-.45,3.63,0,0,0,0-.01,0-.01,0,0,0-.02,0-.01,0,0,0-.03,0-.05,.02-.11,.04-.16,.06-.12,.04-.24,.08-.36,.11-.2,.06-.36,.19-.48,.36-.18,.06-.36,.11-.55,.17-.56,.17-1.12,.34-1.68,.51-.41-.25-.82-.5-1.21-.77-.23-.16-.46-.32-.68-.5-.02-.01-.03-.02-.05-.04-.06-.05-.13-.1-.19-.15-.12-.1-.24-.19-.35-.29-.19-.16-.38-.26-.63-.26-.18,0-.39,.08-.54,.2-.01,0-.03,0-.04,.01-.8,.52-1.52,1.16-2.11,1.91-.09,.08-.15,.18-.19,.29-.06,.11-.08,.22-.08,.34,0,.21,.09,.45,.24,.6,.14,.59,.37,1.18,.71,1.68,.21,.31,.45,.61,.72,.88,.06,.06,.11,.11,.17,.17-.39,.5-.78,1.01-1.13,1.54-.21,.32-.41,.63-.6,.96-.14,.23-.26,.46-.35,.7-.29-.02-.59-.03-.88-.05-.67-.03-1.36-.13-2.03-.1-.88,.03-1.13,.72-1.27,1.46-.07,.36-.13,.73-.19,1.09-.06,.38-.15,.76-.05,1.14,.19,.7,.92,.98,1.51,1.26,.62,.3,1.25,.57,1.89,.82,.02,0,.05,.02,.07,.03,.01,.07,.03,.14,.03,.17,.03,.34,.05,.67,.06,1.01,.03,.7,.02,1.4-.01,2.1,0,.18,.06,.34,.16,.48l-.7,.44c-.56,.35-1.13,.69-1.63,1.13-.28,.24-.52,.53-.61,.89-.11,.48,.12,.89,.32,1.3,.3,.59,.63,1.17,.98,1.73,.2,.32,.63,.54,1.01,.41,.16-.05,.3-.15,.42-.28,.13,0,.25,0,.38,0,.3,0,.59-.03,.89-.06,.39-.04,.77-.12,1.15-.19,.8,.83,1.59,1.67,2.37,2.53-.35,.98-.67,2.03-.76,3.07-.11,1.33,1.35,1.74,2.32,2.22,.48,.24,1.04,.63,1.6,.49,.56-.14,.76-.61,1.02-1.06,.26-.45,.56-.86,.93-1.22,.17-.17,.34-.32,.54-.45,.04-.03,.09-.03,.13-.04,0,.02,0,.02,.02,.04,.3,.67,1.53,.53,1.64-.21,.14-.99,.16-2.09-.78-2.71-.46-.31-1.02-.39-1.51-.62-.51-.24-.99-.55-1.46-.88-1.74-1.23-3.62-2.6-4.19-4.76,0-.02-.02-.04-.03-.06,0-.22-.09-.45-.25-.64,0,0,0,0-.01-.01-.12-.16-.22-.34-.31-.52-.07-.18-.12-.37-.15-.56-.02-.19-.02-.38,0-.57,.04-.14,.06-.3,0-.47-.6-2.16-.46-4.27,.27-6.38,.71-2.07,1.52-3.86,3.17-5.35,2.77-2.49,6.59-3.55,10.25-3.06,0,0,0,0,.02,0,0,0,0,0,0,.01,.08,.09,.18,.15,.29,.19,.11,.06,.22,.08,.34,.08,.22,0,.48-.1,.63-.26,.16-.17,.27-.39,.26-.63-.01-.08-.02-.16-.03-.24Z"/><path class="cls-1" d="M46.61,28.22c-.51-1.29-1.23-2.44-2.15-3.44-.92-1-2-1.78-3.2-2.33-1.25-.57-2.57-.86-3.93-.86h-8.45c-1.36,0-2.69,.29-3.93,.86-1.2,.55-2.28,1.33-3.2,2.33-.92,.99-1.65,2.15-2.15,3.44-.52,1.33-.79,2.74-.79,4.2v3.87c-4.58-1.33-7.96-5.3-8.51-10.07-.75-6.52,3.95-12.43,10.46-13.17,1.57-.18,3.13-.05,4.63,.38,.04,.01,.07,.02,.11,.02,.4,1.23,1.02,2.44,1.8,3.5,.76,1.03,1.63,1.85,2.57,2.44,1.04,.65,2.13,.98,3.24,.98s2.19-.33,3.24-.98c.94-.59,1.81-1.41,2.57-2.44,1.47-1.99,2.34-4.5,2.34-6.72s0-4.49-1-6.32c-1.16-2.12-3.45-3.15-6.99-3.15-.06,0-.12,0-.17,0-1.93,.02-3.45,.27-4.66,.77-1.12,.47-1.94,1.13-2.5,2.04-1.01,1.61-1.01,3.67-.99,5.67-.39-.07-.78-.13-1.17-.17l-.85-2.69s0-.01,0-.02c-.12-.72-.79-1.23-1.52-1.14l-3.05,.35c-.34,.04-.65,.2-.88,.46-.04,.05-.08,.1-.12,.16-.16,.25-.24,.56-.22,.86l-.22,2.81c-.95,.33-1.87,.75-2.74,1.25l-2.22-1.63c-.25-.25-.57-.39-.92-.41-.37-.02-.72,.11-.99,.36l-2.26,2.07c-.55,.5-.6,1.35-.12,1.91l1.43,2.37c-.58,.83-1.08,1.71-1.49,2.63h-2.79c-.25-.04-.51,0-.75,.09-.42,.18-.73,.55-.82,1l-.61,3.01c-.1,.52,.1,1.05,.52,1.37,0,0,0,0,0,0,0,0,0,0,.01,0,0,0,0,0,0,0,.02,.01,.03,.02,.05,.04,.13,.09,.28,.15,.44,.19l2.57,1.06c.01,.5,.04,1.01,.1,1.5,.06,.5,.14,1,.24,1.49l-2.27,1.61c-.66,.33-.94,1.13-.64,1.8l1.27,2.79c.23,.51,.73,.81,1.26,.81,.17,0,.35-.03,.52-.1l2.72-.63c.61,.8,1.29,1.55,2.04,2.22l-.85,2.63c-.16,.31-.2,.66-.1,1,.1,.35,.33,.65,.65,.83l2.67,1.51c.21,.12,.45,.18,.68,.18,.47,0,.92-.24,1.18-.66l1.79-2.09c.43,.13,.87,.24,1.31,.34v5.48c0,.18,.11,.35,.27,.43,1.98,.93,4.17,1.66,6.51,2.16,2.41,.51,4.94,.78,7.52,.78s5.1-.26,7.52-.78c2.34-.5,4.53-1.22,6.51-2.16,.17-.08,.27-.25,.27-.43v-13.46c0-1.46-.26-2.87-.79-4.2ZM26.74,4.07c.98-1.56,3.06-2.34,6.36-2.37,.06,0,.11,0,.17,0,3.16,0,5.18,.87,6.16,2.66,.88,1.61,.88,3.77,.88,5.86s-.81,4.33-2.16,6.16c-1.45,1.96-3.24,3.04-5.05,3.04s-3.6-1.08-5.05-3.04c-1.35-1.83-2.16-4.13-2.16-6.16,0-.29,0-.58,0-.86-.02-2-.04-3.89,.84-5.29Zm-9.26,34.99c-.18-.06-.38,0-.51,.14l-2.02,2.36s-.04,.05-.05,.08c-.12,.2-.38,.28-.58,.16l-2.67-1.51c-.1-.06-.17-.15-.2-.26-.03-.11-.02-.22,.04-.32,.02-.03,.03-.06,.04-.09l.96-2.97c.06-.18,0-.38-.14-.51-.87-.75-1.65-1.6-2.32-2.53-.11-.15-.31-.23-.49-.18l-3.06,.71s-.06,.02-.09,.03c-.21,.1-.47,0-.57-.21l-1.27-2.79c-.1-.21,0-.47,.21-.57,.03-.01,.05-.03,.08-.04l2.56-1.82c.16-.11,.23-.31,.19-.49-.13-.56-.23-1.12-.29-1.69-.07-.57-.1-1.15-.1-1.72,0-.19-.12-.37-.29-.44l-2.9-1.19s-.06-.02-.09-.03c-.05-.01-.11-.03-.15-.06,0,0-.01,0-.02-.01h0s0,0,0,0c-.13-.1-.19-.26-.16-.42l.61-3.01c.03-.14,.12-.26,.26-.31,.08-.03,.16-.04,.25-.02,.03,0,.06,0,.09,0h3.14c.19,0,.36-.12,.44-.29,.45-1.05,1.01-2.06,1.69-2.99,.11-.15,.12-.36,.02-.53l-1.61-2.67s-.04-.05-.06-.08c-.16-.17-.15-.44,.03-.6l2.26-2.07c.08-.08,.19-.12,.31-.11,.11,0,.22,.05,.3,.14,.02,.02,.04,.04,.07,.06l2.51,1.84c.15,.11,.36,.12,.53,.02,.98-.59,2.03-1.07,3.12-1.42,.18-.06,.31-.22,.33-.41l.25-3.16s0-.06,0-.09c-.01-.13,.03-.22,.06-.28,.01-.02,.02-.03,.04-.05,.07-.08,.17-.13,.27-.14l3.05-.35c.23-.03,.43,.13,.47,.36,0,0,0,.01,0,.02,0,.03,0,.06,.02,.09l.96,3.03c.06,.18,.22,.31,.41,.33,.53,.04,1.06,.12,1.57,.22,0,0,0,.01,0,.02,0,.7,.09,1.43,.25,2.17-1.49-.37-3.02-.47-4.56-.29-1.72,.2-3.36,.73-4.85,1.57-1.45,.82-2.71,1.89-3.74,3.2-1.04,1.31-1.8,2.78-2.27,4.37-.49,1.65-.63,3.36-.43,5.08,.31,2.68,1.42,5.15,3.23,7.15,.87,.96,1.87,1.78,2.99,2.44,1.02,.6,2.11,1.06,3.24,1.36v2.14c-.45-.1-.89-.22-1.32-.36Zm28.96,6.52c-3.88,1.78-8.49,2.72-13.34,2.72s-9.46-.94-13.34-2.72v-13.16c0-5.44,4.09-9.87,9.12-9.87h8.45c5.03,0,9.12,4.43,9.12,9.87v13.16Z"/></svg>